<?xml version="1.0" standalone="no"?>
<!DOCTYPE svg PUBLIC "-//W3C//DTD SVG 20010904//EN"
 "http://www.w3.org/TR/2001/REC-SVG-20010904/DTD/svg10.dtd">
<svg version="1.0" xmlns="http://www.w3.org/2000/svg"
 width="512.000000pt" height="512.000000pt" viewBox="0 0 512.000000 512.000000"
 preserveAspectRatio="xMidYMid meet">
<metadata>
Created by potrace 1.11, written by Peter Selinger 2001-2013
</metadata>
<g transform="translate(0.000000,512.000000) scale(0.100000,-0.100000)"
fill="#000000" stroke="none">
<path d="M2509 4281 c-40 -40 -39 -82 1 -123 26 -26 36 -30 66 -25 46 8 61 21
73 64 25 91 -74 150 -140 84z"/>
<path d="M2935 4205 c-54 -53 -16 -145 60 -145 77 0 114 89 59 144 -35 35 -86
35 -119 1z"/>
<path d="M3325 4165 c-14 -13 -25 -33 -25 -45 0 -29 44 -70 75 -70 59 0 86 77
42 118 -30 29 -62 28 -92 -3z"/>
<path d="M1665 4078 c-69 -40 -97 -122 -66 -192 23 -52 50 -76 98 -86 117 -27
218 76 183 187 -16 48 -36 72 -77 89 -39 17 -111 18 -138 2z"/>
<path d="M2263 3826 c-97 -44 -86 -203 15 -223 70 -14 121 8 147 63 21 45 14
89 -23 133 -32 38 -89 50 -139 27z"/>
<path d="M4089 3661 c-23 -24 -29 -38 -29 -75 0 -36 5 -48 25 -65 42 -32 80
-36 120 -11 62 38 59 127 -5 162 -48 25 -77 23 -111 -11z"/>
<path d="M3538 3644 c-75 -40 -78 -160 -6 -204 113 -69 240 58 166 166 -37 54
-103 70 -160 38z"/>
<path d="M2727 3413 c-14 -13 -7 -53 8 -53 9 0 45 -13 81 -30 162 -73 289
-286 269 -449 -9 -80 -25 -140 -48 -185 -18 -38 -19 -40 -1 -53 28 -20 33 -17
59 40 41 90 58 173 50 250 -20 207 -121 359 -296 446 -79 40 -109 48 -122 34z"/>
<path d="M2680 3261 c0 -5 -2 -16 -5 -24 -4 -10 9 -19 42 -32 70 -27 116 -60
153 -111 62 -86 77 -197 40 -301 -18 -53 -19 -57 -2 -69 11 -8 21 -9 29 -2 24
20 46 112 46 190 0 64 -5 87 -31 142 -37 79 -105 150 -175 181 -69 31 -97 38
-97 26z"/>
<path d="M2155 3177 c-9 -14 -29 -59 -43 -99 -51 -142 -28 -323 58 -458 70
-109 217 -212 324 -226 44 -6 46 -6 46 18 0 21 -8 27 -57 42 -181 56 -303 198
-334 388 -12 72 3 168 38 256 l25 64 -20 20 -20 20 -17 -25z"/>
<path d="M2274 3052 c-26 -54 -31 -187 -10 -254 37 -114 132 -211 241 -244 39
-11 50 -12 57 -2 15 25 8 35 -34 47 -166 50 -268 239 -214 397 21 61 20 71 -3
83 -16 9 -22 5 -37 -27z"/>
<path d="M2574 3080 c-78 -18 -134 -92 -134 -177 0 -148 177 -232 290 -137
104 88 81 248 -45 305 -43 20 -62 21 -111 9z"/>
<path d="M1114 3058 c-38 -42 -46 -87 -55 -328 -21 -586 -40 -1036 -44 -1047
-7 -21 14 -140 34 -185 10 -25 87 -137 170 -249 83 -112 195 -262 248 -334 53
-71 112 -164 132 -205 32 -68 36 -85 39 -178 l4 -104 47 -20 c91 -39 288 -99
410 -124 68 -14 125 -24 126 -22 5 5 25 548 28 728 3 270 0 275 -374 655 -146
148 -286 293 -313 322 -85 92 -166 110 -230 49 -30 -28 -36 -40 -36 -75 0 -69
25 -108 158 -249 233 -246 223 -234 205 -255 -9 -10 -22 -16 -29 -15 -20 5
-352 384 -372 425 -28 56 -34 89 -23 131 12 44 75 110 117 121 28 7 29 9 29
77 0 91 -43 664 -55 733 -16 91 -78 157 -157 168 -31 4 -42 1 -59 -19z"/>
<path d="M3905 3057 c-21 -12 -52 -41 -68 -63 -32 -46 -31 -39 -67 -494 -11
-140 -23 -285 -26 -321 l-6 -67 33 -11 c50 -16 117 -85 125 -129 10 -50 -11
-119 -49 -168 -18 -22 -104 -120 -191 -218 -153 -170 -160 -176 -178 -159 -10
9 -17 22 -16 29 2 7 79 92 171 189 204 213 230 259 192 339 -30 63 -118 86
-181 47 -30 -19 -374 -364 -567 -569 -118 -126 -147 -168 -177 -252 -22 -64
-22 -71 -16 -345 4 -155 9 -294 11 -310 2 -17 4 -87 6 -157 2 -149 -11 -138
135 -108 149 31 265 68 449 146 6 2 10 45 10 97 1 149 23 185 469 782 98 131
130 187 145 255 14 63 -35 1344 -55 1415 -25 94 -71 116 -149 72z"/>
</g>
</svg>
